<?xml version="1.0" encoding="UTF-8"?>
<svg xmlns="http://www.w3.org/2000/svg" width="960" height="220" viewBox="0 0 960 220" fill="none">
  <!-- 手稿风科研闭环：五个节拍 + 审阅回流虚线 -->
  <rect x="0.5" y="0.5" width="959" height="219" rx="6" fill="#FBF7EC" stroke="#C9BFA4"/>

  <text x="40" y="36" font-family="ui-monospace, 'SF Mono', Menlo, monospace" font-size="12" letter-spacing="6" fill="#9B9178">科研闭环</text>
  <line x1="40" y1="48" x2="920" y2="48" stroke="#D9CFB6" stroke-width="1"/>

  <!-- 五个节拍 -->
  <g text-anchor="middle">
    <text x="110" y="98" font-family="ui-monospace, 'SF Mono', Menlo, monospace" font-size="12" fill="#3B6FD4">01</text>
    <text x="110" y="126" font-family="Georgia, 'Songti SC', serif" font-size="21" fill="#1D1A13">文献</text>
    <text x="110" y="146" font-family="ui-monospace, 'SF Mono', Menlo, monospace" font-size="10.5" fill="#6D6552">书架 · PDF · 引用</text>

    <text x="290" y="98" font-family="ui-monospace, 'SF Mono', Menlo, monospace" font-size="12" fill="#3B6FD4">02</text>
    <text x="290" y="126" font-family="Georgia, 'Songti SC', serif" font-size="21" fill="#1D1A13">设计</text>
    <text x="290" y="146" font-family="ui-monospace, 'SF Mono', Menlo, monospace" font-size="10.5" fill="#6D6552">Brief · Plan</text>

    <text x="470" y="98" font-family="ui-monospace, 'SF Mono', Menlo, monospace" font-size="12" fill="#3B6FD4">03</text>
    <text x="470" y="126" font-family="Georgia, 'Songti SC', serif" font-size="21" fill="#1D1A13">实验</text>
    <text x="470" y="146" font-family="ui-monospace, 'SF Mono', Menlo, monospace" font-size="10.5" fill="#6D6552">运行 · 溯源</text>

    <text x="650" y="98" font-family="ui-monospace, 'SF Mono', Menlo, monospace" font-size="12" fill="#3B6FD4">04</text>
    <text x="650" y="126" font-family="Georgia, 'Songti SC', serif" font-size="21" fill="#1D1A13">写作</text>
    <text x="650" y="146" font-family="ui-monospace, 'SF Mono', Menlo, monospace" font-size="10.5" fill="#6D6552">LaTeX · 预览</text>

    <text x="830" y="98" font-family="ui-monospace, 'SF Mono', Menlo, monospace" font-size="12" fill="#3B6FD4">05</text>
    <text x="830" y="126" font-family="Georgia, 'Songti SC', serif" font-size="21" fill="#1D1A13">审阅</text>
    <text x="830" y="146" font-family="ui-monospace, 'SF Mono', Menlo, monospace" font-size="10.5" fill="#6D6552">改动 · 闸门</text>
  </g>

  <!-- 前向箭头 -->
  <g stroke="#B3A888" stroke-width="1.6" stroke-linecap="round" fill="none">
    <path d="M164 118 H228 M222 113 L228 118 L222 123"/>
    <path d="M344 118 H408 M402 113 L408 118 L402 123"/>
    <path d="M524 118 H588 M582 113 L588 118 L582 123"/>
    <path d="M704 118 H768 M762 113 L768 118 L762 123"/>
  </g>

  <!-- 审阅回流到文献 -->
  <path d="M830 158 C 830 192, 110 192, 110 160" stroke="#5468A8" stroke-width="1.6" stroke-dasharray="5 5" fill="none"/>
  <path d="M105 166 L110 158 L115 166" stroke="#5468A8" stroke-width="1.6" stroke-linecap="round" fill="none"/>
  <text x="470" y="210" text-anchor="middle" font-family="ui-monospace, 'SF Mono', Menlo, monospace" font-size="10.5" fill="#5468A8">审阅回流，再来一轮——你始终在环里</text>
</svg>
