<?xml version="1.0" encoding="UTF-8"?>
<svg xmlns="http://www.w3.org/2000/svg" width="960" height="220" viewBox="0 0 960 220" fill="none">
  <rect width="960" height="220" rx="24" fill="#F7F3EE"/>
  <text x="480" y="42" text-anchor="middle" font-family="system-ui, 'PingFang SC', 'Noto Sans SC', sans-serif" font-size="18" font-weight="600" fill="#2C2825">科研闭环</text>
  <g font-family="system-ui, 'PingFang SC', 'Noto Sans SC', sans-serif" font-size="14" font-weight="600" fill="#2C2825">
    <rect x="40" y="78" width="140" height="72" rx="14" fill="#fff" stroke="#E8DFD4"/>
    <text x="110" y="112" text-anchor="middle">文献</text>
    <text x="110" y="132" text-anchor="middle" font-size="11" font-weight="400" fill="#8A7F74">库 · PDF · 引用</text>

    <rect x="220" y="78" width="140" height="72" rx="14" fill="#fff" stroke="#E8DFD4"/>
    <text x="290" y="112" text-anchor="middle">设计</text>
    <text x="290" y="132" text-anchor="middle" font-size="11" font-weight="400" fill="#8A7F74">Brief · Plan</text>

    <rect x="400" y="78" width="140" height="72" rx="14" fill="#fff" stroke="#E8DFD4"/>
    <text x="470" y="112" text-anchor="middle">实验</text>
    <text x="470" y="132" text-anchor="middle" font-size="11" font-weight="400" fill="#8A7F74">Run · 溯源</text>

    <rect x="580" y="78" width="140" height="72" rx="14" fill="#fff" stroke="#E8DFD4"/>
    <text x="650" y="112" text-anchor="middle">写作</text>
    <text x="650" y="132" text-anchor="middle" font-size="11" font-weight="400" fill="#8A7F74">LaTeX · SyncTeX</text>

    <rect x="760" y="78" width="140" height="72" rx="14" fill="#fff" stroke="#E8DFD4"/>
    <text x="830" y="112" text-anchor="middle">审阅</text>
    <text x="830" y="132" text-anchor="middle" font-size="11" font-weight="400" fill="#8A7F74">Diff · 闸门</text>
  </g>
  <g stroke="#C9853E" stroke-width="2.5" fill="none" stroke-linecap="round">
    <path d="M184 114 H216"/>
    <path d="M364 114 H396"/>
    <path d="M544 114 H576"/>
    <path d="M724 114 H756"/>
  </g>
  <text x="480" y="196" text-anchor="middle" font-family="system-ui, 'PingFang SC', 'Noto Sans SC', sans-serif" font-size="12" fill="#8A7F74">本地一体工作台 · 你始终在环内</text>
</svg>
